<svg xmlns="http://www.w3.org/2000/svg" viewBox="0 0 512 512" id="copy-paste">
  <circle cx="256" cy="256" r="250" fill="#2196f3"></circle>
  <path fill="#fff" d="M302.9 349.8v19.5c0 6.5-5.2 11.7-11.7 11.7H158.3c-6.5 0-11.7-5.2-11.7-11.7V189.6c0-6.5 5.2-11.7 11.7-11.7h35.2v144.5c0 15.1 12.3 27.3 27.3 27.3l82.1.1z"></path>
  <path fill="#fff" d="M302.9 181.8V131h-82c-6.5 0-11.7 5.2-11.7 11.7v179.7c0 6.5 5.2 11.7 11.7 11.7h132.8c6.5 0 11.7-5.2 11.7-11.7V193.5h-50.8c-6.5 0-11.7-5.3-11.7-11.7z"></path>
  <path fill="#fff" d="m361.9 166.6-32.2-32.2c-2.2-2.2-5.2-3.4-8.3-3.4h-3v46.9h46.9v-3c.1-3.1-1.2-6.1-3.4-8.3z"></path>
</svg>